<mxfile host="app.diagrams.net" modified="2023-08-28T15:09:14.812Z" agent="Mozilla/5.0 (Windows NT 10.0; Win64; x64) AppleWebKit/537.36 (KHTML, like Gecko) Chrome/116.0.0.0 Safari/537.36" etag="068Dyj0OGpAmE1FR6RXN" version="21.6.9" type="device">
  <diagram name="Page-1" id="G00_sYY7bJfkfD6WRE-R">
    <mxGraphModel dx="1034" dy="507" grid="1" gridSize="10" guides="1" tooltips="1" connect="1" arrows="1" fold="1" page="1" pageScale="1" pageWidth="850" pageHeight="1100" math="0" shadow="0">
      <root>
        <mxCell id="0" />
        <mxCell id="1" parent="0" />
        <mxCell id="ErKDf9i6ltLcGQtGkXMT-1" value="org" style="swimlane;fontStyle=0;childLayout=stackLayout;horizontal=1;startSize=26;fillColor=none;horizontalStack=0;resizeParent=1;resizeParentMax=0;resizeLast=0;collapsible=1;marginBottom=0;whiteSpace=wrap;html=1;" vertex="1" parent="1">
          <mxGeometry x="40" y="50" width="210" height="110" as="geometry" />
        </mxCell>
        <mxCell id="ErKDf9i6ltLcGQtGkXMT-2" value="&lt;div&gt;+ org()&lt;/div&gt;&lt;div&gt;+ ~org()&lt;/div&gt;&lt;div&gt;+ getTotalExpenditure(): int&lt;/div&gt;&lt;div&gt;+ getExpenditureByCostCenter(): int&lt;/div&gt;&lt;div&gt;+ print(): void&lt;/div&gt;" style="text;strokeColor=none;fillColor=none;align=left;verticalAlign=top;spacingLeft=4;spacingRight=4;overflow=hidden;rotatable=0;points=[[0,0.5],[1,0.5]];portConstraint=eastwest;whiteSpace=wrap;html=1;" vertex="1" parent="ErKDf9i6ltLcGQtGkXMT-1">
          <mxGeometry y="26" width="210" height="84" as="geometry" />
        </mxCell>
        <mxCell id="ErKDf9i6ltLcGQtGkXMT-5" value="orgStructure" style="swimlane;fontStyle=0;childLayout=stackLayout;horizontal=1;startSize=26;fillColor=none;horizontalStack=0;resizeParent=1;resizeParentMax=0;resizeLast=0;collapsible=1;marginBottom=0;whiteSpace=wrap;html=1;" vertex="1" parent="1">
          <mxGeometry x="360" y="50" width="220" height="140" as="geometry" />
        </mxCell>
        <mxCell id="ErKDf9i6ltLcGQtGkXMT-6" value="&lt;div&gt;+ orgStructure():&lt;/div&gt;&lt;div&gt;+ addIndividual(org *i):void&amp;nbsp;&lt;/div&gt;&lt;div&gt;+ getTotalExpenditure():int&amp;nbsp;&lt;/div&gt;&lt;div&gt;+ getExpenditureByCostCenter():int&amp;nbsp;&lt;/div&gt;&lt;div&gt;+ print(): void&lt;/div&gt;&lt;div&gt;&lt;br&gt;&lt;/div&gt;&lt;div&gt;- _list: list&amp;lt;org *&amp;gt;&lt;/div&gt;" style="text;strokeColor=none;fillColor=none;align=left;verticalAlign=top;spacingLeft=4;spacingRight=4;overflow=hidden;rotatable=0;points=[[0,0.5],[1,0.5]];portConstraint=eastwest;whiteSpace=wrap;html=1;" vertex="1" parent="ErKDf9i6ltLcGQtGkXMT-5">
          <mxGeometry y="26" width="220" height="114" as="geometry" />
        </mxCell>
        <mxCell id="ErKDf9i6ltLcGQtGkXMT-9" value="individual" style="swimlane;fontStyle=0;childLayout=stackLayout;horizontal=1;startSize=26;fillColor=none;horizontalStack=0;resizeParent=1;resizeParentMax=0;resizeLast=0;collapsible=1;marginBottom=0;whiteSpace=wrap;html=1;" vertex="1" parent="1">
          <mxGeometry x="366" y="290" width="220" height="200" as="geometry" />
        </mxCell>
        <mxCell id="ErKDf9i6ltLcGQtGkXMT-10" value="&lt;div&gt;+ individual(int cc, int co, string _name)&lt;/div&gt;&lt;div&gt;+ getTotalExpenditure(): int&lt;/div&gt;&lt;div&gt;+ getExpenditureByCostCenter(): int&lt;/div&gt;&lt;div&gt;+ print(): void&lt;/div&gt;&lt;div&gt;&lt;br&gt;&lt;/div&gt;&lt;div&gt;- uniqueID: int&lt;/div&gt;&lt;div&gt;- uniqueIDGenerator: int&lt;/div&gt;&lt;div&gt;- costCenter: int&lt;/div&gt;&lt;div&gt;- individualCostCompany: int&lt;/div&gt;&lt;div&gt;- costCompany: int&lt;/div&gt;&lt;div&gt;- name: string&lt;/div&gt;" style="text;strokeColor=none;fillColor=none;align=left;verticalAlign=top;spacingLeft=4;spacingRight=4;overflow=hidden;rotatable=0;points=[[0,0.5],[1,0.5]];portConstraint=eastwest;whiteSpace=wrap;html=1;" vertex="1" parent="ErKDf9i6ltLcGQtGkXMT-9">
          <mxGeometry y="26" width="220" height="174" as="geometry" />
        </mxCell>
        <mxCell id="ErKDf9i6ltLcGQtGkXMT-13" value="" style="endArrow=diamondThin;endFill=0;endSize=24;html=1;rounded=0;entryX=0;entryY=0.5;entryDx=0;entryDy=0;" edge="1" parent="1" target="ErKDf9i6ltLcGQtGkXMT-6">
          <mxGeometry width="160" relative="1" as="geometry">
            <mxPoint x="250" y="133" as="sourcePoint" />
            <mxPoint x="500" y="270" as="targetPoint" />
          </mxGeometry>
        </mxCell>
        <mxCell id="ErKDf9i6ltLcGQtGkXMT-14" value="" style="html=1;verticalAlign=bottom;endArrow=block;edgeStyle=elbowEdgeStyle;elbow=vertical;curved=0;rounded=0;entryX=1.003;entryY=0.349;entryDx=0;entryDy=0;entryPerimeter=0;" edge="1" parent="1" target="ErKDf9i6ltLcGQtGkXMT-2">
          <mxGeometry width="80" relative="1" as="geometry">
            <mxPoint x="359" y="105" as="sourcePoint" />
            <mxPoint x="460" y="270" as="targetPoint" />
            <Array as="points">
              <mxPoint x="310" y="105" />
            </Array>
          </mxGeometry>
        </mxCell>
        <mxCell id="ErKDf9i6ltLcGQtGkXMT-15" value="" style="html=1;verticalAlign=bottom;endArrow=block;edgeStyle=elbowEdgeStyle;elbow=vertical;curved=0;rounded=0;entryX=0.495;entryY=1;entryDx=0;entryDy=0;entryPerimeter=0;exitX=0;exitY=0.5;exitDx=0;exitDy=0;" edge="1" parent="1" source="ErKDf9i6ltLcGQtGkXMT-10" target="ErKDf9i6ltLcGQtGkXMT-2">
          <mxGeometry width="80" relative="1" as="geometry">
            <mxPoint x="380" y="270" as="sourcePoint" />
            <mxPoint x="460" y="270" as="targetPoint" />
            <Array as="points">
              <mxPoint x="260" y="403" />
            </Array>
          </mxGeometry>
        </mxCell>
      </root>
    </mxGraphModel>
  </diagram>
</mxfile>
